<svg xmlns="http://www.w3.org/2000/svg" xmlns:xlink="http://www.w3.org/1999/xlink" width="50" height="50" viewBox="0 0 50 50">
  <defs>
    <clipPath id="clip-path">
      <rect id="Rectangle_30" data-name="Rectangle 30" width="50" height="50" fill="none"/>
    </clipPath>
  </defs>
  <g id="Group_2806" data-name="Group 2806" transform="translate(-176 -1240.5)">
    <g id="Group_2805" data-name="Group 2805" transform="translate(176 1240.5)">
      <g id="Group_2804" data-name="Group 2804" clip-path="url(#clip-path)">
        <path id="Path_5608" data-name="Path 5608" d="M50,25A25,25,0,1,1,25,0,25,25,0,0,1,50,25" transform="translate(0 0)" fill="red"/>
        <path id="Path_5609" data-name="Path 5609" d="M24.613,27.629a4.552,4.552,0,0,0-1.422.226,6.341,6.341,0,0,0-4.937-3.791V16.7a8.2,8.2,0,0,0,5.185-2.06c2.262-2.264,2.086-5.977,2.076-6.134a.9.9,0,0,0-.851-.851c-.157-.01-3.87-.186-6.134,2.076a6.226,6.226,0,0,0-.642.766,8.472,8.472,0,0,0-2.119-3.986c-2.7-2.7-7.154-2.49-7.342-2.481a.9.9,0,0,0-.851.854c-.012.188-.224,4.638,2.481,7.34A9.936,9.936,0,0,0,16.446,14.7v9.366a6.341,6.341,0,0,0-4.937,3.791,4.543,4.543,0,0,0-5.958,4.31V33.98a.9.9,0,0,0,.9.9H28.243a.905.905,0,0,0,.906-.9V32.165A4.541,4.541,0,0,0,24.613,27.629Zm2.726,5.446H7.361v-.911a2.725,2.725,0,0,1,4.2-2.3.906.906,0,0,0,1.37-.557,4.544,4.544,0,0,1,8.847,0,.905.905,0,0,0,1.37.557,2.725,2.725,0,0,1,4.2,2.3ZM14.489,7.792a8.115,8.115,0,0,1,1.938,5.094,8.083,8.083,0,0,1-5.094-1.938A8.129,8.129,0,0,1,9.4,5.853a8.073,8.073,0,0,1,5.092,1.938m5.32,3.22a6.322,6.322,0,0,1,3.87-1.522,6.361,6.361,0,0,1-1.52,3.872,6.322,6.322,0,0,1-3.87,1.522,6.361,6.361,0,0,1,1.52-3.872" transform="translate(7.651 5.546)" fill="#fff"/>
      </g>
    </g>
  </g>
</svg>
