<svg xmlns="http://www.w3.org/2000/svg" xmlns:xlink="http://www.w3.org/1999/xlink" width="50" height="50" viewBox="0 0 50 50">
  <defs>
    <clipPath id="clip-path">
      <rect id="Rectangle_37" data-name="Rectangle 37" width="50" height="50" fill="none"/>
    </clipPath>
  </defs>
  <g id="Group_2821" data-name="Group 2821" transform="translate(-1101 -1431)">
    <g id="Group_2822" data-name="Group 2822" transform="translate(1101 1431)">
      <g id="Group_2821-2" data-name="Group 2821" transform="translate(0 0)" clip-path="url(#clip-path)">
        <path id="Path_5627" data-name="Path 5627" d="M50,25A25,25,0,1,1,25,0,25,25,0,0,1,50,25" transform="translate(0 0)" fill="red"/>
        <path id="Path_5628" data-name="Path 5628" d="M18.06,3.6,5.036,8.334V19.791a14.226,14.226,0,0,0,5.839,11.468l7.185,5.223,7.183-5.223a14.221,14.221,0,0,0,5.841-11.468V8.334ZM28.912,19.791A12.053,12.053,0,0,1,23.968,29.5L18.06,33.8l-5.908-4.3a12.04,12.04,0,0,1-4.945-9.713V9.854L18.06,5.908,28.912,9.854Z" transform="translate(6.941 4.96)" fill="#fff"/>
        <path id="Path_5629" data-name="Path 5629" d="M9.442,11.315,7.908,12.849l4.838,4.838,7.549-7.551L18.76,8.6l-6.015,6.017Z" transform="translate(10.899 11.855)" fill="#fff"/>
      </g>
    </g>
  </g>
</svg>
