<svg xmlns="http://www.w3.org/2000/svg" xmlns:xlink="http://www.w3.org/1999/xlink" width="420.148" height="118.214" viewBox="0 0 420.148 118.214">
  <defs>
    <clipPath id="clip-path">
      <rect id="Rectangle_15" data-name="Rectangle 15" width="420.148" height="118.214" fill="none"/>
    </clipPath>
  </defs>
  <g id="Group_30" data-name="Group 30" transform="translate(0 0)">
    <rect id="Rectangle_6" data-name="Rectangle 6" width="27.203" height="27.203" transform="translate(0 0)" fill="#e50019"/>
    <rect id="Rectangle_7" data-name="Rectangle 7" width="27.203" height="27.203" transform="translate(44.359 0)" fill="#d2001b"/>
    <rect id="Rectangle_8" data-name="Rectangle 8" width="27.203" height="27.203" transform="translate(0 44.357)" fill="#58040c"/>
    <rect id="Rectangle_9" data-name="Rectangle 9" width="27.203" height="27.203" transform="translate(44.359 44.357)" fill="#930b17"/>
    <g id="Group_29" data-name="Group 29" transform="translate(0 0)">
      <g id="Group_28" data-name="Group 28" clip-path="url(#clip-path)">
        <path id="Path_103" data-name="Path 103" d="M105.636,15.029c0,11.065-8.877,15.07-17.216,15.07s-17.258-4.005-17.258-15.07C71.162,4,80.079,0,88.42,0s17.216,4,17.216,15.029m-6.771,0c0-5.657-3.262-9.993-10.446-9.993S77.974,9.372,77.974,15.029c0,5.7,3.262,10.032,10.446,10.032s10.446-4.336,10.446-10.032" transform="translate(76.677 -0.001)" fill="#fff"/>
        <path id="Path_104" data-name="Path 104" d="M131.824.278v28.9h-6.648V6.349l-9.7,22.832h-6.318l-9.7-22.832V29.18H92.806V.278h10.363L112.3,22.491,121.461.278Z" transform="translate(99.998 0.299)" fill="#fff"/>
        <path id="Path_105" data-name="Path 105" d="M157.613.278v28.9h-6.648V6.349l-9.7,22.832h-6.318l-9.7-22.832V29.18H118.6V.278h10.363l9.126,22.213L147.25.278Z" transform="translate(127.786 0.299)" fill="#fff"/>
        <path id="Path_106" data-name="Path 106" d="M171.829.278V17.5c0,10.115-6.523,12.3-14.493,12.3-7.928,0-14.493-2.188-14.493-12.3V3.814L149.492.278v16.8c0,5.9,2.89,7.678,7.845,7.678s7.845-1.774,7.845-7.678V3.814Z" transform="translate(153.914 0.299)" fill="#fff"/>
        <path id="Path_107" data-name="Path 107" d="M194.033.278v28.9H186.56L170.54,8.536V29.18h-6.648V.278h7.431l16.02,20.686V.278Z" transform="translate(176.593 0.299)" fill="#fff"/>
        <path id="Path_108" data-name="Path 108" d="M193.617.278v28.9h-6.648V3.814Z" transform="translate(201.458 0.299)" fill="#fff"/>
        <path id="Path_109" data-name="Path 109" d="M95.241,49.524,88.921,39.4H78.035V49.524H71.161V19.637H89.6c8.113,0,12.3,3.885,12.3,9.905,0,4.7-2.221,7.514-6.147,8.881l7.128,11.1ZM78.035,34.2H89.349c4.184,0,5.549-2.177,5.549-4.654,0-2.562-1.28-4.61-5.549-4.61H78.035Z" transform="translate(76.676 21.158)" fill="#fff"/>
        <path id="Path_110" data-name="Path 110" d="M119.063,43.674h-16.4l-2.562,5.848h-7.3L106.64,19.637h8.453l13.788,29.885h-7.3Zm-2.306-5.252-5.892-13.576-5.892,13.576Z" transform="translate(99.998 21.158)" fill="#fff"/>
        <path id="Path_111" data-name="Path 111" d="M150.19,34.58c0,11.912-8.709,14.943-18.018,14.943H118.6V19.637h13.576c9.309,0,18.018,3.031,18.018,14.943m-7.045,0c0-7.685-4.525-9.648-11.655-9.648h-5.977v19.3h5.977c7.13,0,11.655-1.92,11.655-9.648" transform="translate(127.785 21.158)" fill="#fff"/>
        <path id="Path_112" data-name="Path 112" d="M187.972,49.524,181.652,39.4H170.766V49.524h-6.874V19.637h18.444c8.113,0,12.3,3.885,12.3,9.905,0,4.7-2.221,7.514-6.147,8.881l7.128,11.1ZM170.766,34.2H182.08c4.184,0,5.549-2.177,5.549-4.654,0-2.562-1.28-4.61-5.549-4.61H170.766Z" transform="translate(176.593 21.158)" fill="#fff"/>
        <path id="Path_113" data-name="Path 113" d="M170.287,50.127H142.908V19.413h26.941l-2.83,5.441H149.973v6.8h18.646l-2.827,5.4H149.973v7.635h17.484Z" transform="translate(153.982 20.917)" fill="#fff"/>
        <path id="Path_114" data-name="Path 114" d="M80.329,24.879H68.7V50.151H61.637V24.879H50.01l2.83-5.441H80.329Z" transform="translate(53.885 20.943)" fill="#fff"/>
        <path id="Path_115" data-name="Path 115" d="M66.737,25.061c-6.937,0-9.621-4.415-9.621-10.03,0-5.576,2.684-9.995,9.621-9.995,3.4,0,5.657,1.055,7.128,2.655h7.666C78.762,2.273,72.818,0,66.737,0,58.4,0,50.3,4.17,50.3,15.031S58.4,30.1,66.737,30.1c6.081,0,12.025-2.273,14.794-7.693H73.865c-1.471,1.6-3.725,2.655-7.128,2.655" transform="translate(54.202 -0.001)" fill="#fff"/>
        <path id="Path_116" data-name="Path 116" d="M204.363,32.03c-5.252-.725-10.2-.9-10.2-3.715,0-2.048,1.452-3.715,7.6-3.715,5.47,0,7.946,1.895,8.233,4.012l5.977-3.154c-1.548-3.627-5.842-6.11-14.125-6.11-10.971,0-14.3,4.527-14.3,9.436,0,4.7,2.562,7.174,10.716,8.538s12.766,1.068,12.766,4.143c0,2.262-2.391,3.756-8.069,3.756-5.422,0-9.008-1.579-9.18-4.7l-6.465,3.465c1.764,4.032,6.856,6.482,15.047,6.482,10.631,0,15.968-3.459,15.968-9.947,0-6.66-5.721-7.344-13.961-8.5" transform="translate(201.824 20.848)" fill="#fff"/>
        <rect id="Rectangle_10" data-name="Rectangle 10" width="10.587" height="2.42" transform="translate(27.203 13.352)" fill="#fff"/>
        <path id="Path_117" data-name="Path 117" d="M17.542,14l7.967-4.6L17.542,4.8Z" transform="translate(18.901 5.166)" fill="#fff"/>
        <rect id="Rectangle_11" data-name="Rectangle 11" width="2.42" height="10.587" transform="translate(56.749 27.176)" fill="#fff"/>
        <path id="Path_118" data-name="Path 118" d="M25.684,17.529l4.6,7.967,4.6-7.967Z" transform="translate(27.675 18.887)" fill="#fff"/>
        <rect id="Rectangle_12" data-name="Rectangle 12" width="10.587" height="2.42" transform="translate(33.797 56.749)" fill="#fff"/>
        <path id="Path_119" data-name="Path 119" d="M21.048,25.684l-7.967,4.6,7.967,4.6Z" transform="translate(14.095 27.674)" fill="#fff"/>
        <rect id="Rectangle_13" data-name="Rectangle 13" width="2.42" height="10.587" transform="translate(12.39 33.797)" fill="#fff"/>
        <path id="Path_120" data-name="Path 120" d="M13.534,21.048l-4.6-7.967-4.6,7.967Z" transform="translate(4.668 14.094)" fill="#fff"/>
        <text id="By" transform="translate(99.992 113.62)" fill="#fff" font-size="11" font-family="MADEOuterSans-Thin, MADE Outer Sans" font-weight="200"><tspan x="0" y="0" letter-spacing="0.09em">B</tspan><tspan y="0">y</tspan></text>
        <path id="Path_121" data-name="Path 121" d="M133.4,48.891l-6.361,13.786h-3.9l-6.382-13.786h3.368l4.963,11.4,4.944-11.4Z" transform="translate(125.805 52.679)" fill="#fff"/>
        <rect id="Rectangle_14" data-name="Rectangle 14" width="3.17" height="13.786" transform="translate(266.491 101.571)" fill="#fff"/>
        <path id="Path_122" data-name="Path 122" d="M146.262,62.677h-12.29V48.891h12.093L144.8,51.332h-7.651v3.054h8.37l-1.271,2.422h-7.1v3.426h7.849Z" transform="translate(144.354 52.679)" fill="#fff"/>
        <path id="Path_123" data-name="Path 123" d="M165.957,48.891l-4.884,13.786H157.35l-2.817-9.413-2.815,9.413h-3.723l-4.884-13.786h3.368l3.428,10.458,3.131-10.458h2.994l3.131,10.458,3.407-10.458Z" transform="translate(154.201 52.679)" fill="#fff"/>
        <path id="Path_124" data-name="Path 124" d="M78.484,51.333H73.265V62.679H70.093V51.333H64.874l1.269-2.443h12.34Z" transform="translate(69.902 52.678)" fill="#fff"/>
        <path id="Path_125" data-name="Path 125" d="M86.325,62.676,83.409,58.01H78.387v4.666h-3.17V48.89h8.507c3.742,0,5.674,1.793,5.674,4.57a3.942,3.942,0,0,1-2.838,4.1l3.291,5.119Zm-7.938-7.07h5.219c1.93,0,2.562-1,2.562-2.146,0-1.182-.592-2.127-2.562-2.127H78.387Z" transform="translate(81.046 52.678)" fill="#fff"/>
        <path id="Path_126" data-name="Path 126" d="M97.406,59.979H89.842l-1.18,2.7H85.294l6.38-13.786h3.9l6.361,13.786H98.567Zm-1.064-2.422-2.717-6.264-2.719,6.264Z" transform="translate(91.904 52.679)" fill="#fff"/>
        <path id="Path_127" data-name="Path 127" d="M111.386,55.784c0,5.495-4.018,6.893-8.31,6.893H96.812V48.891h6.264c4.292,0,8.31,1.4,8.31,6.893m-3.249,0c0-3.546-2.088-4.452-5.377-4.452H100v8.9h2.757c3.289,0,5.377-.887,5.377-4.452" transform="translate(104.314 52.679)" fill="#fff"/>
        <path id="Path_128" data-name="Path 128" d="M118.319,55.22l.53-1.12h-8.541c.6-2.169,2.478-2.767,5.171-2.767h2.757l1.922-.029,1.269-2.414h-6.264c-4.143,0-8.03,1.3-8.3,6.334Z" transform="translate(115.15 52.678)" fill="#fff"/>
        <path id="Path_129" data-name="Path 129" d="M118.236,56.369h-2.757c-2.688,0-4.57-.611-5.169-2.767h6.945l.53-1.12-10.917,0c.266,5.03,4.151,6.334,8.3,6.334h6.264l-1.269-2.451Z" transform="translate(115.15 56.544)" fill="#fff"/>
      </g>
    </g>
  </g>
</svg>
