<svg xmlns="http://www.w3.org/2000/svg" xmlns:xlink="http://www.w3.org/1999/xlink" width="50" height="50" viewBox="0 0 50 50">
  <defs>
    <clipPath id="clip-path">
      <rect id="Rectangle_38" data-name="Rectangle 38" width="50" height="50" fill="none"/>
    </clipPath>
  </defs>
  <g id="Group_2823" data-name="Group 2823" transform="translate(-1446 -1455)">
    <g id="Group_2824" data-name="Group 2824" transform="translate(1446 1455)">
      <g id="Group_2823-2" data-name="Group 2823" transform="translate(0 0)" clip-path="url(#clip-path)">
        <path id="Path_5630" data-name="Path 5630" d="M50,25A25,25,0,1,1,25,0,25,25,0,0,1,50,25" transform="translate(0 0)" fill="red"/>
        <path id="Path_5631" data-name="Path 5631" d="M34.394,25.6l-3.472-3.47a12.678,12.678,0,1,0-22.906,0L4.546,25.6A1.81,1.81,0,0,0,5.3,28.61l3.855,1.173,1.173,3.855a1.81,1.81,0,0,0,3.013.754l5.068-5.066a12.894,12.894,0,0,0,2.121,0L25.6,34.392a1.811,1.811,0,0,0,3.013-.754l1.17-3.855L33.64,28.61A1.812,1.812,0,0,0,34.394,25.6ZM12.059,33.112l-1.17-3.858a1.812,1.812,0,0,0-1.206-1.206l-3.858-1.17,3.123-3.123a12.713,12.713,0,0,0,7.275,5.192Zm-1.8-10.665a10.866,10.866,0,1,1,18.427,0A10.876,10.876,0,0,1,10.256,22.448Zm19,5.6a1.807,1.807,0,0,0-1.206,1.206l-1.173,3.858-4.164-4.164a12.726,12.726,0,0,0,7.278-5.192l3.12,3.123Z" transform="translate(5.532 5.531)" fill="#fff"/>
        <path id="Path_5632" data-name="Path 5632" d="M15.765,5.536a9.056,9.056,0,1,0,9.054,9.057,9.066,9.066,0,0,0-9.054-9.057m-4.885,14.4a7.243,7.243,0,1,1,12.039-4.21,7.252,7.252,0,0,1-12.039,4.21" transform="translate(9.236 7.63)" fill="#fff"/>
        <path id="Path_5633" data-name="Path 5633" d="M15.689,8.417,11.7,11.381,10.314,9.906a.905.905,0,0,0-1.32,1.239l1.936,2.062a.9.9,0,0,0,1.2.107l4.64-3.444a.905.905,0,1,0-1.08-1.453Z" transform="translate(12.059 11.356)" fill="#fff"/>
      </g>
    </g>
  </g>
</svg>
