<svg xmlns="http://www.w3.org/2000/svg" xmlns:xlink="http://www.w3.org/1999/xlink" width="50" height="50" viewBox="0 0 50 50">
  <defs>
    <clipPath id="clip-path">
      <rect id="Rectangle_36" data-name="Rectangle 36" width="50" height="50" fill="none"/>
    </clipPath>
  </defs>
  <g id="Group_2819" data-name="Group 2819" transform="translate(-534 -1453)">
    <g id="Group_2820" data-name="Group 2820" transform="translate(534 1453)">
      <g id="Group_2819-2" data-name="Group 2819" transform="translate(0 0)" clip-path="url(#clip-path)">
        <path id="Path_5618" data-name="Path 5618" d="M50,25A25,25,0,1,1,25,0,25,25,0,0,1,50,25" transform="translate(0 0)" fill="red"/>
        <path id="Path_5619" data-name="Path 5619" d="M10.986,23.238a2.831,2.831,0,0,1-2.107-.885L6.436,19.908a2.949,2.949,0,0,1,0-4.212l4.971-4.973a2.952,2.952,0,0,1,4.214,0,1.224,1.224,0,0,1,0,1.769,1.257,1.257,0,0,1-1.769,0,.458.458,0,0,0-.633,0L8.205,17.508a.455.455,0,0,0,0,.63l2.443,2.445a.458.458,0,0,0,.633,0l4.973-4.973a.46.46,0,0,0,0-.63,1.252,1.252,0,0,1,1.769-1.772,2.952,2.952,0,0,1,0,4.214l-4.93,4.93A2.971,2.971,0,0,1,10.986,23.238Z" transform="translate(7.651 13.56)" fill="#fff"/>
        <path id="Path_5620" data-name="Path 5620" d="M15.25,18.908a2.831,2.831,0,0,1-2.107-.885,1.224,1.224,0,0,1,0-1.769,1.257,1.257,0,0,1,1.769,0,.458.458,0,0,0,.633,0l4.973-4.973a.46.46,0,0,0,0-.63L18.073,8.205a.458.458,0,0,0-.633,0l-4.93,4.973a.46.46,0,0,0,0,.63,1.22,1.22,0,0,1,0,1.769,1.257,1.257,0,0,1-1.769,0,2.949,2.949,0,0,1,0-4.212l4.93-4.93a2.952,2.952,0,0,1,4.214,0l2.443,2.443a2.952,2.952,0,0,1,0,4.214L17.4,18.023a3,3,0,0,1-2.15.885" transform="translate(13.585 7.651)" fill="#fff"/>
        <path id="Path_5621" data-name="Path 5621" d="M9.336,10.8a1.149,1.149,0,0,1-.885-.378L6.934,8.9a1.222,1.222,0,0,1,.086-1.769,1.245,1.245,0,0,1,1.727,0l1.517,1.475a1.224,1.224,0,0,1,0,1.769A1.359,1.359,0,0,1,9.336,10.8Z" transform="translate(9.092 9.354)" fill="#fff"/>
        <path id="Path_5622" data-name="Path 5622" d="M9.925,10.517A1.277,1.277,0,0,1,8.662,9.38L8.493,7.273A1.24,1.24,0,0,1,9.63,5.924a1.266,1.266,0,0,1,1.349,1.137l.169,2.107a1.309,1.309,0,0,1-1.139,1.391c0-.043-.04-.043-.083-.043" transform="translate(11.703 8.162)" fill="#fff"/>
        <path id="Path_5623" data-name="Path 5623" d="M9.1,11.368H8.977L6.87,11.2A1.273,1.273,0,0,1,5.733,9.807,1.29,1.29,0,0,1,7.082,8.67l2.1.169a1.225,1.225,0,0,1,1.139,1.391A1.21,1.21,0,0,1,9.1,11.368" transform="translate(7.89 11.947)" fill="#fff"/>
        <path id="Path_5624" data-name="Path 5624" d="M15.486,16.552a1.149,1.149,0,0,1-.885-.378L13.084,14.7a1.252,1.252,0,0,1,1.769-1.769L16.37,14.4a1.223,1.223,0,0,1,0,1.772,1.149,1.149,0,0,1-.885.378" transform="translate(17.561 17.339)" fill="#fff"/>
        <path id="Path_5625" data-name="Path 5625" d="M12.835,17.81a1.277,1.277,0,0,1-1.263-1.137L11.4,14.566a1.269,1.269,0,0,1,1.137-1.391,1.248,1.248,0,0,1,1.391,1.139v.04l.166,2.107a1.306,1.306,0,0,1-1.137,1.391.153.153,0,0,0-.126-.043" transform="translate(15.705 18.146)" fill="#fff"/>
        <path id="Path_5626" data-name="Path 5626" d="M16.719,13.919H16.59l-2.1-.169a1.332,1.332,0,0,1-1.137-1.391,1.29,1.29,0,0,1,1.346-1.137l2.107.169a1.209,1.209,0,0,1,1.139,1.349,1.189,1.189,0,0,1-1.222,1.18" transform="translate(18.395 15.463)" fill="#fff"/>
      </g>
    </g>
  </g>
</svg>
