<svg xmlns="http://www.w3.org/2000/svg" xmlns:xlink="http://www.w3.org/1999/xlink" width="50" height="50" viewBox="0 0 50 50">
  <defs>
    <clipPath id="clip-path">
      <rect id="Rectangle_35" data-name="Rectangle 35" width="50" height="50" fill="none"/>
    </clipPath>
  </defs>
  <g id="Group_2817" data-name="Group 2817" transform="translate(-1334 -1155)">
    <g id="Group_2818" data-name="Group 2818" transform="translate(1334 1155)">
      <g id="Group_2817-2" data-name="Group 2817" transform="translate(0 0)" clip-path="url(#clip-path)">
        <path id="Path_5613" data-name="Path 5613" d="M50,25A25,25,0,1,1,25,0,25,25,0,0,1,50,25" transform="translate(0 0)" fill="red"/>
        <path id="Path_5614" data-name="Path 5614" d="M24.32,6.906a.923.923,0,0,0-1.3,0L4.582,25.341a.919.919,0,0,0,0,1.3l3.686,3.686a.919.919,0,0,0,1.3,0L28.007,11.9a.923.923,0,0,0,0-1.3ZM8.92,28.375,6.537,25.992,19.059,13.47l2.383,2.383L8.92,28.375M22.746,14.55l-2.383-2.383,3.306-3.306,2.383,2.383Z" transform="translate(5.942 9.148)" fill="#fff"/>
        <path id="Path_5615" data-name="Path 5615" d="M11.872,11.684A7.2,7.2,0,0,1,15.559,8a7.213,7.213,0,0,1-3.686-3.686A7.2,7.2,0,0,1,8.186,8a7.187,7.187,0,0,1,3.686,3.686" transform="translate(11.283 5.942)" fill="#fff"/>
        <path id="Path_5616" data-name="Path 5616" d="M17.005,9.737a3.6,3.6,0,0,1-1.843,1.843,3.611,3.611,0,0,1,1.843,1.843,3.611,3.611,0,0,1,1.843-1.843,3.6,3.6,0,0,1-1.843-1.843" transform="translate(20.899 13.421)" fill="#fff"/>
        <path id="Path_5617" data-name="Path 5617" d="M19.142,7.076A5.4,5.4,0,0,1,16.376,4.31a5.39,5.39,0,0,1-2.764,2.766,5.39,5.39,0,0,1,2.764,2.766,5.4,5.4,0,0,1,2.766-2.766" transform="translate(18.762 5.94)" fill="#fff"/>
      </g>
    </g>
  </g>
</svg>
