<svg xmlns="http://www.w3.org/2000/svg" width="364.9" height="55.8" viewBox="0 0 364.9 55.8">
  <g id="Logo" transform="translate(-0.1)">
    <g id="Group_5" data-name="Group 5">
      <g id="Group_1" data-name="Group 1">
        <path id="Path_1" data-name="Path 1" d="M281,9.1l-8.8,19h-5.4L258,9.1h4.6l6.8,15.7,6.8-15.7H281Z" fill="#ff0400"/>
      </g>
      <g id="Group_2" data-name="Group 2">
        <path id="Path_2" data-name="Path 2" d="M295.4,9.1v19H291V9.1Z" fill="#ff0400"/>
      </g>
      <g id="Group_3" data-name="Group 3">
        <path id="Path_3" data-name="Path 3" d="M324.3,28.1H307.4V9.1H324l-1.7,3.4H311.8v4.2h11.5L321.6,20h-9.8v4.7h10.8Z" fill="#ff0400"/>
      </g>
      <g id="Group_4" data-name="Group 4">
        <path id="Path_4" data-name="Path 4" d="M365,9.1l-6.7,19h-5.1l-3.9-13-3.9,13h-5.1l-6.7-19h4.6l4.7,14.4,4.3-14.4h4.1l4.3,14.4,4.7-14.4Z" fill="#ff0400"/>
      </g>
      <path id="Path_5" data-name="Path 5" d="M90.3,3.4,83,0,74.5.9h-.1L61.7,11.7,59.9,9.6l-.1-.1L49.4,7.1h-.1c-.1,0-9.8,1-9.8,1-.1,0-.1,0-.1.1L27.5,29.3v.2L31,38.1c0,.1.2.2.3.2l2.2-.2.3-.6-2,.2L42.6,18.1l9.1,13.3.1.1a.349.349,0,0,0,.2.1l6.1-.1-9.8,23v.2l.1.1,12.4,1,9.1-2.5c.1,0,.1-.1.2-.2l17-37.5v-.2c0-.1-.1-.1-.2-.2l-2-.5,5.5-4.4a.764.764,0,0,0,.2-.5V3.9A.55.55,0,0,0,90.3,3.4ZM50,7.8l9.5,2.3L61.2,12l-5,4.3Zm36.5,7.7L69.7,52.6,61,55,79,13.6Zm-2.3-1.1L78.9,13h-.2a.1.1,0,0,0-.1.1L58.2,30.9l-5.5.1L82.8,7.4l7,2.5Zm5.9-4.9L83.1,7V.6l7,3.2Z" fill="red"/>
    </g>
    <g id="Group_12" data-name="Group 12">
      <g id="Group_6" data-name="Group 6">
        <path id="Path_6" data-name="Path 6" d="M128.3,12.4h-7.2V28h-4.4V12.4h-7.2L111.2,9h17v3.4Z" fill="#fff"/>
      </g>
      <g id="Group_7" data-name="Group 7">
        <path id="Path_7" data-name="Path 7" d="M154.5,28.1l-4-6.4h-6.9v6.4h-4.4V9.1h11.7c5.2,0,7.8,2.5,7.8,6.3,0,3-1.4,4.8-3.9,5.6l4.5,7.1Zm-11-9.8h7.2c2.7,0,3.5-1.4,3.5-3s-.8-2.9-3.5-2.9h-7.2Z" fill="#fff"/>
      </g>
      <g id="Group_8" data-name="Group 8">
        <path id="Path_8" data-name="Path 8" d="M184.7,24.4H174.3l-1.6,3.7H168l8.8-19h5.4l8.8,19h-4.6ZM183.2,21l-3.7-8.6L175.8,21Z" fill="#fff"/>
      </g>
      <g id="Group_9" data-name="Group 9">
        <path id="Path_9" data-name="Path 9" d="M221.1,18.6c0,7.6-5.5,9.5-11.5,9.5H201V9.1h8.6C215.5,9.1,221.1,11,221.1,18.6Zm-4.5,0c0-4.9-2.9-6.1-7.4-6.1h-3.8V24.8h3.8C213.7,24.7,216.6,23.5,216.6,18.6Z" fill="#fff"/>
      </g>
      <g id="Group_10" data-name="Group 10">
        <path id="Path_10" data-name="Path 10" d="M245.6,17.8l.7-1.5H234.5c.8-3,3.4-3.8,7.1-3.8H248l1.7-3.3h-8.6c-5.7,0-11.1,1.8-11.4,8.7Z" fill="#fff"/>
        <path id="Path_11" data-name="Path 11" d="M245.4,24.7h-3.8c-3.7,0-6.3-.8-7.1-3.8h9.6l.7-1.5h-15c.4,6.9,5.7,8.7,11.4,8.7h8.6l-1.7-3.4Z" fill="#fff"/>
      </g>
      <g id="Group_11" data-name="Group 11">
        <path id="Path_12" data-name="Path 12" d="M181,37.2v9.1h-2.1V39.1l-3.1,7.2h-2l-3.1-7.2v7.2h-2.1V37.2h3.3l2.9,7,2.9-7H181Z" fill="#fff"/>
        <path id="Path_13" data-name="Path 13" d="M200.3,44.6h-5l-.8,1.8h-2.2l4.2-9.1h2.6l4.2,9.1h-2.2Zm-.7-1.6-1.8-4.1L196,43Z" fill="#fff"/>
        <path id="Path_14" data-name="Path 14" d="M221.9,46.3,220,43.2h-3.4v3.1h-2.1V37.2h5.6c2.5,0,3.7,1.2,3.7,3a2.624,2.624,0,0,1-1.9,2.7l2.2,3.4Zm-5.2-4.6h3.4c1.3,0,1.7-.7,1.7-1.4,0-.8-.4-1.4-1.7-1.4h-3.4Z" fill="#fff"/>
        <path id="Path_15" data-name="Path 15" d="M239.9,42.1l-2,1.8v2.4h-2.1V37.2h2.1v4.3l4.6-4.3h2.7l-3.9,3.5,4.1,5.6H243Z" fill="#fff"/>
        <path id="Path_16" data-name="Path 16" d="M265,46.3h-8.1V37.2h8v1.6H259v2h5.5v1.6H259v2.3h6Z" fill="#fff"/>
        <path id="Path_17" data-name="Path 17" d="M285.3,38.9h-3.4v7.5h-2.1V38.9h-3.4V37.3h9v1.6Z" fill="#fff"/>
        <path id="Path_18" data-name="Path 18" d="M305.9,43.5c0,2-1.6,3-4.9,3-3.1,0-4.8-1.2-4.8-3h2.2c.1.9,1.1,1.4,2.8,1.4s2.5-.5,2.5-1.1c0-.9-1.4-.8-3.9-1.3-2.5-.4-3.3-1.2-3.3-2.6,0-1.5,1-2.9,4.4-2.9,3.2,0,4.5,1.2,4.5,2.8h-2c-.1-.7-.8-1.2-2.5-1.2-1.9,0-2.3.5-2.3,1.1,0,.9,1.5.9,3.1,1.1C304.1,41.3,305.9,41.5,305.9,43.5Z" fill="#fff"/>
      </g>
      <path id="Path_19" data-name="Path 19" d="M48.6,52.1l8.6-19.7v-.3l-.5-.7H56l.5.6-6.5.5-7.2-9.6,3.1.1c-.1-.2-.3-.4-.4-.6l-3.2-.1c-.1,0-.2,0-.2.1L33.9,37.6h0l-.3.6h0l-2.5,4.7L22.8,21.5l8.8,1,.3-.5-6.7-.8,7.3-.2h0l.3-.6-16.3.5-7.7-.5,21.8-1,2.7.1.3-.5-2.1-.1h-.4L37,8.6,39,9l.3-.5-2-.4L.2,11.1c-.1,0-.1,0-.1.1v.2l3.5,9.2h.1l11.2.8-4.1.2c-.1,0-.1,0-.1.1v.2L22.5,52.7c0,.1.1.1.2.1L40.1,54l8.4-1.7A.349.349,0,0,0,48.6,52.1Zm-8.4,1.3L50.1,33l6.5-.4L48.2,51.8Z" fill="#fff"/>
    </g>
  </g>
</svg>
